# xmcd CD database file
#
# Track frame offsets:
#	150
#	19305
#	65489
#	86177
#	129294
#	167209
#	193707
#	250427
#
# Disc length: 4182 seconds
#
# Revision: 0
# Processed by: cddbd v1.5.1PL0 Copyright (c) Steve Scherf et al.
# Submitted via: CDex 1.51
#
DISCID=70105408
DTITLE=Petrified Alien Brain - Too Wet To Plow...Too Windy To Stack BB's
DYEAR=1900
DGENRE=Blues
TTITLE0=runaround
TTITLE1=viola lee blues
TTITLE2=paint it black
TTITLE3=born under a bad sign
TTITLE4=oreo cokie blues
TTITLE5=bronco aches for carbonic hog
TTITLE6=crosscut saw
TTITLE7=cortez the killer
EXTD=
EXTT0=
EXTT1=
EXTT2=
EXTT3=
EXTT4=
EXTT5=
EXTT6=
EXTT7=
PLAYORDER=
